# xmcd
#
# Track frame offsets: 
#        150
#        24141
#        43731
#        64381
#        76716
#        95722
#        107366
#        117483
#        133984
#        143871
#        151882
#
# Disc length: 2251 seconds
#
# Revision: 0
# Processed by: cddbd v1.5.2PL0 Copyright (c) Steve Scherf et al.
# Submitted via: ExactAudioCopyFreeDBPlugin 1.0
#
DISCID=8f08c90b
DTITLE=The Milk Carton Kids - Monterey
DYEAR=2015
DGENRE=Pop
TTITLE0=Asheville Skies
TTITLE1=Getaway
TTITLE2=Montery
TTITLE3=Secrets Of The Stars
TTITLE4=Freedom
TTITLE5=High Hopes
TTITLE6=Deadly Bells
TTITLE7=Shooting Shadows
TTITLE8=The City Of Our Lady
TTITLE9=Sing, Sparrow, Sing
TTITLE10=Poison Tree
EXTD=
EXTT0=
EXTT1=
EXTT2=
EXTT3=
EXTT4=
EXTT5=
EXTT6=
EXTT7=
EXTT8=
EXTT9=
EXTT10=
PLAYORDER=
